# xmcd
#
# Track frame offsets:
#	150
#	16008
#	29090
#	44792
#	61841
#	82636
#	103784
#	116588
#	136846
#	147168
#
# Disc length: 2199 seconds
#
# Revision: 0
# Processed by: cddbd v1.5.2PL0 Copyright (c) Steve Scherf et al.
# Submitted via: EasyCDDAExtractor 12.0.1.1
#
DISCID=7f08950a
DTITLE=Various Artist - Welcome 2 Toyeland
DYEAR=1900
DGENRE=
TTITLE0=Teddy Toye - Baby Don't Cry
TTITLE1=Lawrence Williams - Bad Boy
TTITLE2=Teddy Toye - Nowhere To Run
TTITLE3=Teddy Toye - Can't Get Enough
TTITLE4=Sonny West, Norman Petter and Bill Tilgham - O' Boy
TTITLE5=Chuck Berry - Johnny B. Goode
TTITLE6=Teddy Toye - Say Little Girl
TTITLE7=Teddy Toye - Be All Right
TTITLE8=James Smith, Richard Penniman, Edwin Bocage and Albert Collins - Slippin
TTITLE8=' and Sliddin'
TTITLE9=Teddy Toye - After The War
EXTD=
EXTT0=
EXTT1=
EXTT2=
EXTT3=
EXTT4=
EXTT5=
EXTT6=
EXTT7=
EXTT8=
EXTT9=
PLAYORDER=
